<?xml version="1.0" encoding="UTF-8"?><svg id="Layer_5" xmlns="http://www.w3.org/2000/svg" width="500" height="500" viewBox="0 0 500 500"><defs><style>.cls-1{fill:#b3b3b3;}.cls-1,.cls-2,.cls-3,.cls-4{stroke-width:0px;}.cls-5{fill:none;stroke:#999;stroke-miterlimit:10;stroke-width:2px;}.cls-2{fill:#ccc;}.cls-3{fill:#fff;}.cls-4{fill:#e6e6e6;}</style></defs><path class="cls-3" d="M406.5,378.5l-8,4-9,4-10,5-10,5-9,5-4-87-4-63-6-61-7-68,34-7v2c0,.83.9,8.17,1,9l29.57,241.41c.29,2.39.77,4.28,1.43,6.59l1,4Z"/><path class="cls-2" d="M373.5,115.5h-5s-.01,0-.04,0l-28.96,7-49,4-21,2-19,2-18,2-17,1-16,1-22,1h-32l-25-2-40-7,1-5h40l-1-9,65-1h35l45,1,49,1,59,2Z"/><path class="cls-5" d="M138.5,134.5c-.52-17.43-.26-35.87.44-53.3.35-8.61,1.34-18.27,8-23.75,1.99-1.64,4.46-2.79,7.04-2.88,4.89-.17,9.09,3.33,12.48,6.86,17.24,17.95,33.01,48.18,36.05,73.08"/><path class="cls-5" d="M248.5,112.5c.86-11.46-.58-25,.04-36.48.62-11.48,3.45-23.41,11.23-31.87,2.3-2.5,5.33-4.76,8.72-4.54,2.4.15,4.58,1.56,6.16,3.36s2.65,4,3.67,6.17c9.25,19.67,16.8,42.67,18.18,64.36"/><path class="cls-2" d="M400,337l-10.1,4.62c-.6.26-1.21.48-1.83.66l-7.7,3.01c-2.9,1.14-5.91,1.98-8.98,2.52l-4.39,1.19,39,29-2-9-4-32Z"/><polygon class="cls-1" points="365.5 349.5 351 238 358.5 349.5 360.5 401.5 405.5 378.5 365.5 349.5"/><polygon class="cls-4" points="400 337 366 348 341 123 373 116 400 337"/><path class="cls-4" d="M360.5,401.5l-277-30,1.23-7.37c.51-3.08.74-6.21.66-9.33l-3.89-203.3c-.03-1.65-.82-17.36-1-19l-.5-5.5,33.71,5.56c11.84,1.95,23.83,2.94,35.83,2.94h27.99c3.32,0,18.67-.76,21.98-1l51-4,89-8,10,95,4,51,3,42,4,91Z"/></svg>