<?xml version="1.0" encoding="UTF-8"?><svg id="titel" xmlns="http://www.w3.org/2000/svg" width="1600" height="236.5" viewBox="0 0 1600 236.5"><defs><style>.cls-1{fill:#7f0a13;stroke-width:0px;}</style></defs><path class="cls-1" d="M68.43,121.87c0-16.43,4.04-29.29,12.12-38.59,8.08-9.29,18.51-13.94,31.29-13.94,8.37,0,15.91,2.18,22.63,6.55,6.72,4.37,11.84,10.46,15.37,18.26,3.52,7.81,5.29,16.67,5.29,26.57s-1.86,19.02-5.57,26.94-8.97,13.92-15.77,17.99c-6.8,4.07-14.14,6.11-22.02,6.11-8.53,0-16.16-2.25-22.88-6.75-6.72-4.5-11.81-10.64-15.27-18.43-3.46-7.79-5.19-16.02-5.19-24.71ZM80.8,122.07c0,11.93,2.94,21.33,8.81,28.19s13.24,10.3,22.11,10.3,16.46-3.47,22.29-10.4c5.83-6.93,8.75-16.77,8.75-29.51,0-8.06-1.25-15.09-3.74-21.1-2.49-6.01-6.14-10.67-10.95-13.98-4.8-3.31-10.19-4.96-16.17-4.96-8.49,0-15.8,3.19-21.92,9.55-6.12,6.37-9.18,17.01-9.18,31.9Z"/><path class="cls-1" d="M164.84,140.37v-12.22h34.2v12.22h-34.2Z"/><path class="cls-1" d="M208.69,138.28l11.32-1.08c.54,4.95,1.78,9.01,3.74,12.19,1.96,3.17,5,5.74,9.12,7.7,4.12,1.96,8.76,2.94,13.91,2.94,4.58,0,8.62-.74,12.12-2.23,3.5-1.49,6.11-3.52,7.82-6.11,1.71-2.59,2.57-5.41,2.57-8.47s-.83-5.82-2.47-8.14c-1.65-2.32-4.37-4.27-8.16-5.84-2.43-1.03-7.81-2.64-16.14-4.83-8.33-2.18-14.16-4.24-17.5-6.18-4.33-2.48-7.56-5.55-9.68-9.22-2.12-3.67-3.18-7.78-3.18-12.32,0-5,1.3-9.67,3.9-14.01,2.6-4.34,6.39-7.64,11.38-9.89,4.99-2.25,10.53-3.38,16.64-3.38,6.72,0,12.65,1.18,17.78,3.54,5.13,2.36,9.08,5.84,11.84,10.43,2.76,4.59,4.25,9.79,4.45,15.6l-11.5.95c-.62-6.26-2.71-10.98-6.28-14.18-3.57-3.2-8.83-4.79-15.8-4.79s-12.54,1.45-15.86,4.36c-3.32,2.9-4.98,6.4-4.98,10.5,0,3.56,1.18,6.48,3.52,8.78,2.31,2.3,8.34,4.65,18.09,7.06,9.75,2.41,16.44,4.51,20.07,6.31,5.28,2.66,9.17,6.02,11.69,10.09,2.51,4.07,3.77,8.77,3.77,14.08s-1.38,10.23-4.14,14.89c-2.76,4.66-6.73,8.28-11.9,10.87-5.17,2.59-11,3.88-17.47,3.88-8.2,0-15.08-1.31-20.62-3.92-5.55-2.61-9.9-6.54-13.05-11.78-3.15-5.24-4.81-11.17-4.98-17.79Z"/><path class="cls-1" d="M291.49,140.37v-12.22h34.2v12.22h-34.2Z"/><path class="cls-1" d="M365.33,170.08l-35.13-98.99h12.99l23.56,71.91c1.9,5.76,3.48,11.16,4.76,16.21,1.4-5.4,3.03-10.8,4.89-16.21l24.49-71.91h12.25l-35.5,98.99h-12.31Z"/><path class="cls-1" d="M630.95,138.28l11.32-1.08c.54,4.95,1.78,9.01,3.74,12.19,1.96,3.17,5,5.74,9.12,7.7,4.12,1.96,8.76,2.94,13.91,2.94,4.58,0,8.62-.74,12.12-2.23,3.5-1.49,6.11-3.52,7.82-6.11,1.71-2.59,2.57-5.41,2.57-8.47s-.83-5.82-2.47-8.14c-1.65-2.32-4.37-4.27-8.16-5.84-2.43-1.03-7.81-2.64-16.14-4.83-8.33-2.18-14.16-4.24-17.5-6.18-4.33-2.48-7.56-5.55-9.68-9.22-2.12-3.67-3.18-7.78-3.18-12.32,0-5,1.3-9.67,3.9-14.01,2.6-4.34,6.39-7.64,11.38-9.89,4.99-2.25,10.53-3.38,16.64-3.38,6.72,0,12.65,1.18,17.78,3.54,5.13,2.36,9.08,5.84,11.84,10.43,2.76,4.59,4.25,9.79,4.45,15.6l-11.5.95c-.62-6.26-2.71-10.98-6.28-14.18-3.57-3.2-8.83-4.79-15.8-4.79s-12.54,1.45-15.86,4.36c-3.32,2.9-4.98,6.4-4.98,10.5,0,3.56,1.18,6.48,3.52,8.78,2.31,2.3,8.34,4.65,18.09,7.06,9.75,2.41,16.44,4.51,20.07,6.31,5.28,2.66,9.17,6.02,11.69,10.09,2.51,4.07,3.77,8.77,3.77,14.08s-1.38,10.23-4.14,14.89c-2.76,4.66-6.73,8.28-11.9,10.87-5.17,2.59-11,3.88-17.47,3.88-8.2,0-15.08-1.31-20.62-3.92-5.55-2.61-9.9-6.54-13.05-11.78-3.15-5.24-4.81-11.17-4.98-17.79Z"/><path class="cls-1" d="M719.75,170.08v-98.99h65.55v11.68h-53.56v30.32h50.15v11.61h-50.15v33.69h55.66v11.68h-67.66Z"/><path class="cls-1" d="M868.67,135.37l12,3.31c-2.52,10.76-7.04,18.96-13.57,24.61-6.54,5.65-14.52,8.47-23.96,8.47s-17.72-2.17-23.84-6.52c-6.12-4.34-10.78-10.63-13.98-18.87s-4.79-17.08-4.79-26.54c0-10.31,1.8-19.3,5.41-26.98,3.61-7.67,8.74-13.5,15.4-17.49s13.99-5.98,21.98-5.98c9.07,0,16.7,2.52,22.88,7.56,6.18,5.04,10.49,12.13,12.92,21.27l-11.81,3.04c-2.1-7.2-5.15-12.45-9.15-15.73-4-3.29-9.03-4.93-15.09-4.93-6.97,0-12.79,1.82-17.47,5.47-4.68,3.65-7.97,8.54-9.86,14.69-1.9,6.14-2.84,12.48-2.84,19.01,0,8.42,1.12,15.77,3.37,22.05s5.74,10.97,10.48,14.08,9.87,4.66,15.4,4.66c6.72,0,12.41-2.12,17.07-6.35,4.66-4.23,7.81-10.51,9.46-18.84Z"/><path class="cls-1" d="M891.8,121.87c0-16.43,4.04-29.29,12.12-38.59,8.08-9.29,18.51-13.94,31.29-13.94,8.37,0,15.91,2.18,22.63,6.55,6.72,4.37,11.84,10.46,15.37,18.26,3.52,7.81,5.29,16.67,5.29,26.57s-1.86,19.02-5.57,26.94-8.97,13.92-15.77,17.99c-6.8,4.07-14.14,6.11-22.02,6.11-8.53,0-16.16-2.25-22.88-6.75-6.72-4.5-11.81-10.64-15.28-18.43-3.46-7.79-5.19-16.02-5.19-24.71ZM904.17,122.07c0,11.93,2.94,21.33,8.81,28.19s13.24,10.3,22.11,10.3,16.46-3.47,22.29-10.4c5.83-6.93,8.75-16.77,8.75-29.51,0-8.06-1.25-15.09-3.74-21.1s-6.14-10.67-10.95-13.98c-4.8-3.31-10.2-4.96-16.17-4.96-8.49,0-15.8,3.19-21.92,9.55-6.12,6.37-9.18,17.01-9.18,31.9Z"/><path class="cls-1" d="M993.84,170.08v-98.99h12.31l47.62,77.72v-77.72h11.5v98.99h-12.31l-47.62-77.79v77.79h-11.5Z"/><path class="cls-1" d="M1085.43,170.08v-98.99h31.23c7.05,0,12.43.47,16.14,1.42,5.2,1.31,9.63,3.67,13.3,7.09,4.78,4.41,8.36,10.05,10.73,16.91,2.37,6.87,3.56,14.71,3.56,23.53,0,7.52-.8,14.18-2.41,19.99-1.61,5.81-3.67,10.61-6.18,14.42-2.52,3.8-5.27,6.8-8.26,8.98-2.99,2.18-6.6,3.84-10.82,4.96-4.23,1.13-9.08,1.69-14.56,1.69h-32.71ZM1097.43,158.4h19.36c5.98,0,10.67-.61,14.07-1.82,3.4-1.21,6.11-2.92,8.13-5.13,2.84-3.11,5.06-7.28,6.65-12.53,1.59-5.24,2.38-11.6,2.38-19.08,0-10.35-1.56-18.31-4.67-23.87-3.11-5.56-6.9-9.28-11.35-11.17-3.22-1.35-8.39-2.03-15.52-2.03h-19.05v75.62Z"/><path class="cls-1" d="M1177.27,170.08v-98.99h12v40.65h47.12v-40.65h12v98.99h-12v-46.66h-47.12v46.66h-12Z"/><path class="cls-1" d="M1258.41,170.08l34.82-98.99h12.92l37.11,98.99h-13.67l-10.58-29.98h-37.91l-9.96,29.98h-12.74ZM1284.57,129.43h30.74l-9.46-27.41c-2.89-8.33-5.03-15.17-6.43-20.53-1.16,6.35-2.78,12.65-4.89,18.91l-9.96,29.03Z"/><path class="cls-1" d="M1352.72,170.08v-98.99h12.31l47.62,77.72v-77.72h11.5v98.99h-12.31l-47.62-77.79v77.79h-11.5Z"/><path class="cls-1" d="M1444.31,170.08v-98.99h31.23c7.05,0,12.43.47,16.14,1.42,5.2,1.31,9.63,3.67,13.3,7.09,4.78,4.41,8.36,10.05,10.73,16.91,2.37,6.87,3.56,14.71,3.56,23.53,0,7.52-.8,14.18-2.41,19.99-1.61,5.81-3.67,10.61-6.18,14.42-2.52,3.8-5.27,6.8-8.26,8.98-2.99,2.18-6.6,3.84-10.82,4.96-4.23,1.13-9.08,1.69-14.56,1.69h-32.71ZM1456.3,158.4h19.36c5.98,0,10.67-.61,14.07-1.82,3.4-1.21,6.11-2.92,8.13-5.13,2.84-3.11,5.06-7.28,6.65-12.53,1.59-5.24,2.38-11.6,2.38-19.08,0-10.35-1.56-18.31-4.67-23.87-3.11-5.56-6.9-9.28-11.35-11.17-3.22-1.35-8.39-2.03-15.52-2.03h-19.05v75.62Z"/></svg>