<?xml version="1.0" encoding="UTF-8"?><svg xmlns="http://www.w3.org/2000/svg" width="500" height="500" viewBox="0 0 500 500"><defs><style>.cls-1{fill:#68070e;}.cls-1,.cls-2{stroke-width:0px;}.cls-2{fill:#fff;}</style></defs><g id="baggrund"><rect class="cls-2" width="500" height="500"/></g><g id="text"><path class="cls-1" d="M149.33,84.72c0-3.49.68-6.58,2.03-9.27,1.36-2.68,3.16-4.92,5.42-6.71,2.17-1.71,4.63-3.01,7.39-3.9,2.76-.89,5.54-1.34,8.34-1.34s5.58.45,8.34,1.34c2.76.9,5.26,2.19,7.52,3.9,2.17,1.79,3.93,4.02,5.29,6.71,1.36,2.68,2.03,5.77,2.03,9.27v45.85c0,3.66-.68,6.79-2.03,9.39-1.36,2.6-3.12,4.76-5.29,6.46-2.26,1.79-4.77,3.13-7.52,4.02-2.76.89-5.54,1.34-8.34,1.34s-5.58-.45-8.34-1.34c-2.76-.89-5.22-2.23-7.39-4.02-2.26-1.71-4.07-3.86-5.42-6.46-1.36-2.6-2.03-5.73-2.03-9.39v-45.85ZM163.16,130.56c0,3.01.93,5.22,2.78,6.65,1.85,1.42,4.04,2.13,6.58,2.13s4.72-.71,6.58-2.13c1.85-1.42,2.78-3.64,2.78-6.65v-45.85c0-3.01-.93-5.22-2.78-6.65-1.85-1.42-4.05-2.13-6.58-2.13s-4.72.71-6.58,2.13c-1.85,1.42-2.78,3.64-2.78,6.65v45.85Z"/><path class="cls-1" d="M274.33,89.44h-13.83v-2.8c0-2.84-.75-5.3-2.24-7.38-1.49-2.07-4-3.11-7.52-3.11-1.9,0-3.44.33-4.61.98-1.18.65-2.12,1.46-2.85,2.44-.72,1.06-1.22,2.26-1.49,3.6-.27,1.34-.41,2.74-.41,4.21,0,1.71.07,3.13.2,4.27.14,1.14.47,2.15,1.02,3.05.54.9,1.33,1.67,2.37,2.32,1.04.65,2.46,1.3,4.27,1.95l10.58,3.78c3.07,1.06,5.56,2.3,7.46,3.72,1.9,1.42,3.39,3.07,4.47,4.94.99,1.95,1.67,4.17,2.03,6.65.36,2.48.54,5.3.54,8.47,0,3.66-.41,7.05-1.22,10.18-.81,3.13-2.12,5.79-3.93,7.99-1.9,2.28-4.38,4.07-7.46,5.36-3.07,1.3-6.83,1.95-11.25,1.95-3.35,0-6.46-.53-9.35-1.58-2.89-1.06-5.38-2.52-7.46-4.39-2.08-1.87-3.73-4.04-4.95-6.52-1.22-2.48-1.83-5.18-1.83-8.11v-4.63h13.83v3.9c0,2.28.75,4.33,2.24,6.16s4,2.74,7.52,2.74c2.35,0,4.18-.31,5.49-.91,1.31-.61,2.33-1.48,3.05-2.62.72-1.14,1.15-2.5,1.29-4.08.14-1.59.2-3.35.2-5.3,0-2.27-.09-4.15-.27-5.61-.18-1.46-.54-2.64-1.08-3.54-.63-.89-1.47-1.63-2.51-2.19-1.04-.57-2.42-1.18-4.13-1.83l-9.9-3.66c-5.97-2.19-9.96-5.1-12-8.72-2.03-3.62-3.05-8.15-3.05-13.6,0-3.25.5-6.34,1.49-9.27.99-2.93,2.48-5.44,4.47-7.56,1.9-2.11,4.31-3.8,7.25-5.06,2.94-1.26,6.44-1.89,10.51-1.89,3.43,0,6.58.57,9.42,1.71,2.85,1.14,5.31,2.64,7.39,4.51,4.16,3.9,6.24,8.37,6.24,13.41v6.1Z"/><path class="cls-1" d="M348.63,64.45l-19.79,86.81h-12.2l-19.66-86.81h14.64l10.98,60.6h.27l11.12-60.6h14.64Z"/><path class="cls-1" d="M194.89,235.54h-13.83v-2.8c0-2.84-.75-5.3-2.24-7.38-1.49-2.07-4-3.11-7.52-3.11-1.9,0-3.44.33-4.61.98-1.18.65-2.12,1.46-2.85,2.44-.72,1.06-1.22,2.26-1.49,3.6-.27,1.34-.41,2.74-.41,4.21,0,1.71.07,3.13.2,4.27.14,1.14.47,2.15,1.02,3.05.54.9,1.33,1.67,2.37,2.32,1.04.65,2.46,1.3,4.27,1.95l10.58,3.78c3.07,1.06,5.56,2.3,7.46,3.72s3.39,3.07,4.47,4.94c.99,1.95,1.67,4.17,2.03,6.65.36,2.48.54,5.3.54,8.47,0,3.66-.41,7.05-1.22,10.18-.81,3.13-2.12,5.79-3.93,7.99-1.9,2.28-4.38,4.07-7.46,5.36-3.07,1.3-6.83,1.95-11.25,1.95-3.34,0-6.46-.53-9.35-1.58-2.89-1.06-5.38-2.52-7.46-4.39-2.08-1.87-3.73-4.04-4.95-6.52-1.22-2.48-1.83-5.18-1.83-8.11v-4.63h13.83v3.9c0,2.28.75,4.33,2.24,6.16,1.49,1.83,4,2.74,7.52,2.74,2.35,0,4.18-.3,5.49-.92,1.31-.61,2.33-1.48,3.05-2.62.72-1.14,1.15-2.5,1.29-4.08.14-1.58.2-3.35.2-5.3,0-2.27-.09-4.15-.27-5.61-.18-1.46-.54-2.64-1.08-3.54-.63-.89-1.47-1.62-2.51-2.2-1.04-.57-2.42-1.18-4.14-1.83l-9.9-3.66c-5.97-2.19-9.96-5.1-12-8.72-2.03-3.62-3.05-8.15-3.05-13.6,0-3.25.5-6.34,1.49-9.27.99-2.93,2.48-5.44,4.47-7.56,1.9-2.11,4.31-3.8,7.25-5.06,2.94-1.26,6.44-1.89,10.51-1.89,3.43,0,6.58.57,9.42,1.71,2.85,1.14,5.31,2.64,7.39,4.51,4.16,3.9,6.24,8.37,6.24,13.41v6.1Z"/><path class="cls-1" d="M228.37,295.85v-86.81h41.21v11.71h-27.39v25.48h23.86v11.71h-23.86v25.48h27.39v12.44h-41.21Z"/><path class="cls-1" d="M342.93,272.85v5.37c0,2.68-.57,5.22-1.7,7.62-1.13,2.4-2.69,4.53-4.68,6.4-1.99,1.87-4.32,3.35-6.98,4.45-2.67,1.1-5.54,1.65-8.61,1.65-2.62,0-5.29-.33-8-.98-2.71-.65-5.15-1.79-7.32-3.41-2.17-1.62-3.96-3.72-5.36-6.28-1.4-2.56-2.1-5.83-2.1-9.82v-47.8c0-2.84.54-5.49,1.63-7.93,1.08-2.44,2.62-4.55,4.61-6.34,1.99-1.79,4.36-3.19,7.12-4.21,2.76-1.02,5.81-1.52,9.15-1.52,6.51,0,11.79,1.91,15.86,5.73,1.99,1.87,3.55,4.08,4.68,6.65,1.13,2.56,1.7,5.35,1.7,8.35v4.88h-13.83v-4.15c0-2.44-.77-4.55-2.3-6.34-1.54-1.79-3.62-2.68-6.24-2.68-3.44,0-5.72.96-6.85,2.87-1.13,1.91-1.69,4.33-1.69,7.25v44.38c0,2.52.61,4.63,1.83,6.34,1.22,1.71,3.41,2.56,6.58,2.56.9,0,1.88-.14,2.92-.43,1.04-.28,2.01-.75,2.92-1.4.81-.65,1.49-1.54,2.03-2.68.54-1.14.81-2.56.81-4.27v-4.27h13.83Z"/><path class="cls-1" d="M150.15,443.68v-86.81h13.83v37.19h17.08v-37.19h13.83v86.81h-13.83v-38.65h-17.08v38.65h-13.83Z"/><path class="cls-1" d="M226.47,443.89v-86.81h13.29l20.88,52.31h.27v-52.31h13.83v86.81h-13.02l-21.15-52.19h-.27v52.19h-13.83Z"/><path class="cls-1" d="M302.39,444.14v-86.81h20.47c7.95,0,13.99,1.95,18.1,5.85,4.11,3.9,6.17,9.43,6.17,16.58v40.6c0,8.13-2.19,14.12-6.58,17.98-4.39,3.86-10.69,5.79-18.91,5.79h-19.25ZM316.22,369.03v63.4h6.37c3.88,0,6.64-.87,8.27-2.62,1.63-1.75,2.44-4.49,2.44-8.23v-41.82c0-3.41-.77-6.05-2.3-7.93-1.54-1.87-4.34-2.8-8.41-2.8h-6.37Z"/></g></svg>