<?xml version="1.0" encoding="UTF-8"?><svg xmlns="http://www.w3.org/2000/svg" width="500" height="500" viewBox="0 0 500 500"><defs><style>.cls-1{fill:#fff6e1;}.cls-1,.cls-2{stroke-width:0px;}.cls-2{fill:#68070e;}</style></defs><g id="baggrund"><rect class="cls-1" width="500" height="500"/></g><g id="text"><path class="cls-2" d="M55.25,79.72c0-3.49.67-6.58,2-9.27,1.34-2.68,3.12-4.92,5.34-6.71,2.14-1.71,4.56-3.01,7.28-3.9,2.72-.89,5.45-1.34,8.21-1.34s5.5.45,8.21,1.34c2.72.9,5.19,2.19,7.41,3.9,2.14,1.79,3.87,4.02,5.21,6.71,1.34,2.68,2,5.77,2,9.27v45.85c0,3.66-.67,6.79-2,9.39-1.34,2.6-3.07,4.76-5.21,6.46-2.23,1.79-4.7,3.13-7.41,4.02-2.72.89-5.46,1.34-8.21,1.34s-5.5-.45-8.21-1.34c-2.72-.89-5.14-2.23-7.28-4.02-2.23-1.71-4.01-3.86-5.34-6.46-1.34-2.6-2-5.73-2-9.39v-45.85ZM68.87,125.56c0,3.01.91,5.22,2.74,6.65,1.82,1.42,3.98,2.13,6.48,2.13s4.65-.71,6.48-2.13c1.82-1.42,2.74-3.64,2.74-6.65v-45.85c0-3.01-.91-5.22-2.74-6.65-1.83-1.42-3.99-2.13-6.48-2.13s-4.65.71-6.48,2.13c-1.83,1.42-2.74,3.64-2.74,6.65v45.85Z"/><path class="cls-2" d="M178.4,84.44h-13.62v-2.8c0-2.84-.73-5.3-2.2-7.38-1.47-2.07-3.94-3.11-7.41-3.11-1.87,0-3.38.33-4.54.98-1.16.65-2.09,1.46-2.81,2.44-.71,1.06-1.2,2.26-1.47,3.6-.27,1.34-.4,2.74-.4,4.21,0,1.71.07,3.13.2,4.27.13,1.14.47,2.15,1,3.05.53.9,1.31,1.67,2.34,2.32,1.02.65,2.42,1.3,4.21,1.95l10.42,3.78c3.03,1.06,5.48,2.3,7.35,3.72,1.87,1.42,3.34,3.07,4.41,4.94.98,1.95,1.65,4.17,2,6.65.35,2.48.53,5.3.53,8.47,0,3.66-.4,7.05-1.2,10.18-.8,3.13-2.09,5.79-3.87,7.99-1.87,2.28-4.32,4.07-7.35,5.36-3.03,1.3-6.72,1.95-11.09,1.95-3.3,0-6.37-.53-9.22-1.58-2.85-1.06-5.3-2.52-7.35-4.39-2.05-1.87-3.67-4.04-4.88-6.52-1.2-2.48-1.8-5.18-1.8-8.11v-4.63h13.62v3.9c0,2.28.73,4.33,2.2,6.16s3.94,2.74,7.41,2.74c2.31,0,4.12-.31,5.41-.91,1.29-.61,2.29-1.48,3.01-2.62.71-1.14,1.14-2.5,1.27-4.08.13-1.59.2-3.35.2-5.3,0-2.27-.09-4.15-.27-5.61-.18-1.46-.53-2.64-1.07-3.54-.62-.89-1.45-1.63-2.47-2.19-1.02-.57-2.38-1.18-4.07-1.83l-9.75-3.66c-5.88-2.19-9.82-5.1-11.82-8.72-2-3.62-3.01-8.15-3.01-13.6,0-3.25.49-6.34,1.47-9.27.98-2.93,2.45-5.44,4.41-7.56,1.87-2.11,4.25-3.8,7.15-5.06,2.89-1.26,6.34-1.89,10.35-1.89,3.38,0,6.48.57,9.28,1.71,2.81,1.14,5.23,2.64,7.28,4.51,4.09,3.9,6.14,8.37,6.14,13.41v6.1Z"/><path class="cls-2" d="M251.59,59.45l-19.5,86.81h-12.02l-19.37-86.81h14.43l10.82,60.6h.27l10.95-60.6h14.43Z"/><path class="cls-2" d="M100.13,230.54h-13.62v-2.8c0-2.84-.73-5.3-2.2-7.38-1.47-2.07-3.94-3.11-7.41-3.11-1.87,0-3.38.33-4.54.98-1.16.65-2.09,1.46-2.81,2.44-.71,1.06-1.2,2.26-1.47,3.6-.27,1.34-.4,2.74-.4,4.21,0,1.71.07,3.13.2,4.27.13,1.14.47,2.16,1,3.05.53.9,1.31,1.67,2.34,2.32,1.02.65,2.42,1.3,4.21,1.95l10.42,3.78c3.03,1.06,5.48,2.3,7.35,3.72,1.87,1.42,3.34,3.07,4.41,4.94.98,1.95,1.65,4.17,2,6.65.35,2.48.53,5.3.53,8.47,0,3.66-.4,7.05-1.2,10.18-.8,3.13-2.09,5.79-3.87,7.99-1.87,2.28-4.32,4.07-7.35,5.36-3.03,1.3-6.72,1.95-11.09,1.95-3.3,0-6.37-.53-9.22-1.58-2.85-1.06-5.3-2.52-7.35-4.39-2.05-1.87-3.67-4.04-4.88-6.52-1.2-2.48-1.8-5.18-1.8-8.11v-4.63h13.62v3.9c0,2.28.73,4.33,2.2,6.16,1.47,1.83,3.94,2.74,7.41,2.74,2.31,0,4.12-.3,5.41-.92,1.29-.61,2.29-1.48,3.01-2.62.71-1.14,1.14-2.5,1.27-4.08.13-1.58.2-3.35.2-5.3,0-2.27-.09-4.15-.27-5.61-.18-1.46-.53-2.64-1.07-3.54-.62-.89-1.45-1.62-2.47-2.2-1.02-.57-2.38-1.18-4.07-1.83l-9.75-3.66c-5.88-2.2-9.82-5.1-11.82-8.72-2-3.62-3.01-8.15-3.01-13.6,0-3.25.49-6.34,1.47-9.27.98-2.93,2.45-5.44,4.41-7.56,1.87-2.11,4.25-3.8,7.15-5.06,2.89-1.26,6.34-1.89,10.35-1.89,3.38,0,6.48.57,9.28,1.71,2.81,1.14,5.23,2.64,7.28,4.51,4.09,3.9,6.14,8.37,6.14,13.41v6.1Z"/><path class="cls-2" d="M133.12,290.85v-86.81h40.61v11.71h-26.98v25.48h23.51v11.71h-23.51v25.48h26.98v12.44h-40.61Z"/><path class="cls-2" d="M245.98,267.85v5.37c0,2.68-.56,5.22-1.67,7.62-1.11,2.4-2.65,4.53-4.61,6.4-1.96,1.87-4.25,3.35-6.88,4.45-2.63,1.1-5.46,1.65-8.48,1.65-2.58,0-5.21-.33-7.88-.98-2.67-.65-5.08-1.79-7.21-3.41-2.14-1.62-3.9-3.72-5.28-6.28-1.38-2.56-2.07-5.83-2.07-9.82v-47.8c0-2.84.53-5.49,1.6-7.93,1.07-2.44,2.58-4.55,4.54-6.34,1.96-1.79,4.29-3.19,7.01-4.21,2.72-1.02,5.72-1.52,9.02-1.52,6.41,0,11.62,1.91,15.63,5.73,1.96,1.87,3.49,4.08,4.61,6.65,1.11,2.56,1.67,5.35,1.67,8.35v4.88h-13.62v-4.15c0-2.44-.76-4.55-2.27-6.34-1.52-1.79-3.56-2.68-6.14-2.68-3.39,0-5.63.96-6.75,2.87-1.11,1.91-1.67,4.33-1.67,7.25v44.38c0,2.52.6,4.63,1.8,6.34s3.36,2.56,6.48,2.56c.89,0,1.85-.14,2.87-.43,1.02-.28,1.98-.75,2.87-1.4.8-.65,1.47-1.54,2-2.68.53-1.14.8-2.56.8-4.27v-4.27h13.62Z"/><path class="cls-2" d="M56.05,438.68v-86.81h13.62v37.19h16.83v-37.19h13.62v86.81h-13.62v-38.65h-16.83v38.65h-13.62Z"/><path class="cls-2" d="M131.25,438.89v-86.81h13.09l20.57,52.31h.27v-52.31h13.62v86.81h-12.82l-20.84-52.19h-.27v52.19h-13.62Z"/><path class="cls-2" d="M206.04,439.14v-86.81h20.17c7.83,0,13.78,1.95,17.83,5.85,4.05,3.9,6.08,9.43,6.08,16.58v40.6c0,8.13-2.16,14.12-6.48,17.98-4.32,3.86-10.53,5.79-18.63,5.79h-18.97ZM219.67,364.03v63.4h6.28c3.83,0,6.54-.87,8.15-2.62,1.6-1.75,2.4-4.49,2.4-8.23v-41.82c0-3.41-.76-6.05-2.27-7.93-1.52-1.87-4.27-2.8-8.28-2.8h-6.28Z"/></g></svg>