<?xml version="1.0" encoding="UTF-8"?><svg xmlns="http://www.w3.org/2000/svg" width="500" height="500" viewBox="0 0 500 500"><defs><style>.cls-1{fill:#3f030a;}.cls-1,.cls-2{stroke-width:0px;}.cls-2{fill:#68070e;}</style></defs><g id="Layer_12"><path class="cls-1" d="M23.21,473.72l4.11-3.87c3.89,3.31,9.29,5.49,14.9,5.49,7.09,0,11.29-2.9,11.29-7.2,0-4.53-3.91-5.97-9.01-7.8l-7.76-2.81c-5.03-1.76-10.94-4.89-10.94-11.41s7.19-11.76,17-11.76c6.4,0,12.11,2.27,15.9,5.49l-3.64,3.62c-3.31-2.56-7.27-4.16-12.26-4.16-6.06,0-10.07,2.51-10.07,6.47,0,4.27,4.71,5.87,8.94,7.33l7.7,2.73c6.25,2.2,11.13,5.26,11.13,11.85,0,7-7.05,12.59-18.4,12.59-7.58,0-14.17-2.54-18.89-6.58Z"/><path class="cls-1" d="M82.32,439.95h-16.34v-4.77h39.55v4.77h-16.34v39.54h-6.87v-39.54Z"/><path class="cls-1" d="M115.18,435.17h31.13v4.77h-24.26v13.89h20.46v4.77h-20.46v16.11h25.08v4.77h-31.95v-44.31Z"/><path class="cls-1" d="M158.55,435.17h15.43c12.1,0,20.27,3.34,20.27,13.05s-8.12,13.69-19.94,13.69h-8.88v17.58h-6.87v-44.31ZM173.44,457.33c9.44,0,13.95-2.81,13.95-9.11s-4.79-8.47-14.28-8.47h-7.69v17.59h8.02Z"/></g><g id="Layer_13"><path class="cls-2" d="M218.78,444.38c120.52-137.7,188.67-220.46,188.67-295.18,0-52.46-24.88-89.68-76.05-89.68-33.55,0-62.41,24.35-85.25,55.08l-30.02-33.5c33.54-42.24,69.67-69.86,121.62-69.86,74.11,0,120.36,53.62,120.36,135.31,0,86.25-69.09,171.97-163.68,285.93,21.71-1.97,46.65-3.94,67.43-3.94h115.9v50.94H218.78v-35.1Z"/></g></svg>