<?xml version="1.0" encoding="UTF-8"?><svg id="Layer_6" xmlns="http://www.w3.org/2000/svg" width="487" height="588" viewBox="0 0 487 588"><defs><style>.cls-1{fill:#68070e;}.cls-1,.cls-2{stroke-width:0px;}.cls-2{fill:#fff;opacity:.5;}</style></defs><rect class="cls-2" width="487" height="588"/><path class="cls-1" d="M135.71,103.19c0-3.87.75-7.29,2.25-10.26,1.5-2.97,3.5-5.44,6-7.43,2.4-1.89,5.13-3.33,8.18-4.32,3.05-.99,6.13-1.48,9.23-1.48s6.18.5,9.23,1.48c3.05.99,5.83,2.43,8.33,4.32,2.4,1.98,4.35,4.46,5.85,7.43,1.5,2.97,2.25,6.39,2.25,10.26v50.76c0,4.05-.75,7.52-2.25,10.4-1.5,2.88-3.45,5.27-5.85,7.16-2.5,1.98-5.28,3.47-8.33,4.46-3.05.99-6.13,1.48-9.23,1.48s-6.18-.5-9.23-1.48c-3.05-.99-5.78-2.47-8.18-4.46-2.5-1.89-4.5-4.27-6-7.16-1.5-2.88-2.25-6.34-2.25-10.4v-50.76ZM151.02,153.96c0,3.33,1.02,5.78,3.08,7.36,2.05,1.58,4.48,2.36,7.28,2.36s5.23-.79,7.28-2.36c2.05-1.57,3.08-4.03,3.08-7.36v-50.76c0-3.33-1.03-5.78-3.08-7.36-2.05-1.57-4.48-2.36-7.28-2.36s-5.23.79-7.28,2.36c-2.05,1.58-3.08,4.03-3.08,7.36v50.76Z"/><path class="cls-1" d="M274.12,108.43h-15.31v-3.1c0-3.15-.83-5.87-2.48-8.17-1.65-2.29-4.43-3.44-8.33-3.44-2.1,0-3.8.36-5.1,1.08-1.3.72-2.35,1.62-3.15,2.7-.8,1.17-1.35,2.5-1.65,3.98-.3,1.49-.45,3.04-.45,4.66,0,1.89.07,3.47.22,4.73.15,1.26.53,2.39,1.13,3.38.6.99,1.48,1.85,2.63,2.57,1.15.72,2.73,1.44,4.73,2.16l11.71,4.19c3.4,1.17,6.15,2.54,8.26,4.12,2.1,1.58,3.75,3.4,4.95,5.47,1.1,2.16,1.85,4.61,2.25,7.36.4,2.75.6,5.87.6,9.38,0,4.05-.45,7.81-1.35,11.27-.9,3.47-2.35,6.41-4.35,8.84-2.1,2.52-4.86,4.5-8.26,5.94-3.4,1.44-7.56,2.16-12.46,2.16-3.7,0-7.16-.59-10.36-1.75-3.2-1.17-5.96-2.79-8.26-4.86-2.3-2.07-4.13-4.48-5.48-7.22-1.35-2.74-2.03-5.74-2.03-8.98v-5.13h15.31v4.32c0,2.52.83,4.79,2.48,6.82,1.65,2.03,4.43,3.04,8.33,3.04,2.6,0,4.63-.34,6.08-1.01,1.45-.67,2.58-1.64,3.38-2.9.8-1.26,1.28-2.77,1.43-4.52.15-1.75.22-3.71.22-5.87,0-2.52-.1-4.59-.3-6.21-.2-1.62-.6-2.92-1.2-3.92-.7-.99-1.63-1.8-2.78-2.43-1.15-.63-2.68-1.3-4.58-2.02l-10.96-4.05c-6.61-2.43-11.03-5.65-13.29-9.65-2.25-4-3.38-9.02-3.38-15.05,0-3.6.55-7.02,1.65-10.26,1.1-3.24,2.75-6.03,4.95-8.37,2.1-2.34,4.78-4.21,8.03-5.6,3.25-1.39,7.13-2.09,11.63-2.09,3.8,0,7.28.63,10.43,1.89,3.15,1.26,5.88,2.93,8.18,5,4.6,4.32,6.91,9.27,6.91,14.85v6.75Z"/><path class="cls-1" d="M356.38,80.75l-21.92,96.13h-13.51l-21.77-96.13h16.21l12.16,67.1h.3l12.31-67.1h16.21Z"/><path class="cls-1" d="M186.15,270.2h-15.31v-3.1c0-3.15-.83-5.87-2.48-8.17-1.65-2.29-4.43-3.44-8.33-3.44-2.1,0-3.8.36-5.1,1.08-1.3.72-2.35,1.62-3.15,2.7-.8,1.17-1.35,2.5-1.65,3.98-.3,1.49-.45,3.04-.45,4.66,0,1.89.08,3.47.23,4.73.15,1.26.53,2.39,1.13,3.38.6.99,1.48,1.85,2.63,2.57,1.15.72,2.73,1.44,4.73,2.16l11.71,4.19c3.4,1.17,6.15,2.54,8.26,4.12,2.1,1.58,3.75,3.4,4.95,5.47,1.1,2.16,1.85,4.61,2.25,7.36.4,2.75.6,5.87.6,9.38,0,4.05-.45,7.81-1.35,11.27-.9,3.47-2.35,6.41-4.35,8.84-2.1,2.52-4.85,4.5-8.26,5.94-3.4,1.44-7.56,2.16-12.46,2.16-3.7,0-7.16-.59-10.36-1.75-3.2-1.17-5.96-2.79-8.26-4.86-2.3-2.07-4.13-4.48-5.48-7.22-1.35-2.74-2.03-5.74-2.03-8.98v-5.13h15.31v4.32c0,2.52.83,4.79,2.48,6.82,1.65,2.03,4.43,3.04,8.33,3.04,2.6,0,4.63-.34,6.08-1.01,1.45-.67,2.58-1.64,3.38-2.9.8-1.26,1.28-2.77,1.43-4.52.15-1.75.23-3.71.23-5.87,0-2.52-.1-4.59-.3-6.21-.2-1.62-.6-2.92-1.2-3.92-.7-.99-1.63-1.8-2.78-2.43-1.15-.63-2.68-1.3-4.58-2.02l-10.96-4.05c-6.6-2.43-11.03-5.65-13.29-9.65-2.25-4-3.38-9.02-3.38-15.05,0-3.6.55-7.02,1.65-10.26,1.1-3.24,2.75-6.03,4.95-8.37,2.1-2.34,4.78-4.21,8.03-5.6,3.25-1.39,7.13-2.09,11.63-2.09,3.8,0,7.28.63,10.43,1.89,3.15,1.26,5.88,2.93,8.18,5,4.6,4.32,6.91,9.27,6.91,14.85v6.75Z"/><path class="cls-1" d="M223.23,336.97v-96.13h45.64v12.96h-30.32v28.22h26.42v12.96h-26.42v28.22h30.32v13.77h-45.64Z"/><path class="cls-1" d="M350.08,311.51v5.94c0,2.97-.63,5.78-1.88,8.44-1.25,2.66-2.98,5.02-5.18,7.09-2.2,2.07-4.78,3.71-7.73,4.93-2.95,1.21-6.13,1.82-9.53,1.82-2.9,0-5.85-.36-8.86-1.08-3-.72-5.7-1.98-8.11-3.78-2.4-1.8-4.38-4.12-5.93-6.95-1.55-2.84-2.33-6.46-2.33-10.87v-52.92c0-3.15.6-6.08,1.8-8.78s2.9-5.04,5.1-7.02c2.2-1.98,4.83-3.53,7.88-4.66,3.05-1.12,6.43-1.69,10.13-1.69,7.21,0,13.06,2.12,17.56,6.34,2.2,2.07,3.93,4.52,5.18,7.36,1.25,2.83,1.88,5.92,1.88,9.25v5.4h-15.31v-4.59c0-2.7-.85-5.04-2.55-7.02-1.7-1.98-4-2.97-6.91-2.97-3.8,0-6.33,1.06-7.58,3.17-1.25,2.12-1.88,4.79-1.88,8.03v49.14c0,2.79.68,5.13,2.03,7.02,1.35,1.89,3.78,2.83,7.28,2.83,1,0,2.08-.16,3.23-.47,1.15-.31,2.23-.83,3.23-1.55.9-.72,1.65-1.71,2.25-2.97.6-1.26.9-2.83.9-4.73v-4.73h15.31Z"/><path class="cls-1" d="M136.61,500.66v-96.13h15.31v41.18h18.92v-41.18h15.31v96.13h-15.31v-42.8h-18.92v42.8h-15.31Z"/><path class="cls-1" d="M221.13,500.9v-96.13h14.71l23.12,57.92h.3v-57.92h15.31v96.13h-14.41l-23.42-57.78h-.3v57.78h-15.31Z"/><path class="cls-1" d="M305.19,501.17v-96.13h22.67c8.81,0,15.49,2.16,20.04,6.48,4.55,4.32,6.83,10.44,6.83,18.36v44.96c0,9-2.43,15.64-7.28,19.91-4.86,4.28-11.84,6.41-20.94,6.41h-21.32ZM320.5,418.01v70.21h7.06c4.3,0,7.36-.97,9.16-2.9,1.8-1.93,2.7-4.97,2.7-9.11v-46.31c0-3.78-.85-6.7-2.55-8.78-1.7-2.07-4.8-3.11-9.31-3.11h-7.06Z"/></svg>